<svg width="24" height="24" viewBox="0 0 24 24" fill="none" xmlns="http://www.w3.org/2000/svg" id='vector'>
<path d="M23 2.9998C22.0424 3.67528 20.9821 4.19191 19.86 4.52981C19.2577 3.83732 18.4573 3.3465 17.567 3.12373C16.6767 2.90097 15.7395 2.957 14.8821 3.28426C14.0247 3.61152 13.2884 4.19421 12.773 4.95352C12.2575 5.71284 11.9877 6.61214 12 7.5298V8.52979C10.2426 8.57536 8.50127 8.18562 6.93101 7.39525C5.36074 6.60488 4.01032 5.43844 3 3.9998C3 3.9998 -1 12.9998 8 16.9998C5.94053 18.3978 3.48716 19.0987 1 18.9998C10 23.9998 21 18.9998 21 7.49979C21 7.21979 20.97 6.93981 20.92 6.66981C21.9406 5.6633 22.6608 4.39252 23 2.9998Z" stroke="white" stroke-width="2" stroke-linecap="round" stroke-linejoin="round"/>
</svg>
